{
	"asset":{
		"generator":"Khronos glTF Blender I/O v4.0.44",
		"version":"2.0"
	},
	"scene":0,
	"scenes":[
		{
			"name":"Scene",
			"nodes":[
				0,
				1
			]
		}
	],
	"nodes":[
		{
			"mesh":0,
			"name":"Mountain.render"
		},
		{
			"mesh":1,
			"name":"Tree01"
		}
	],
	"materials":[
		{
			"doubleSided":true,
			"name":"Material",
			"pbrMetallicRoughness":{
				"baseColorTexture":{
					"index":0
				},
				"metallicFactor":0,
				"roughnessFactor":0.5
			}
		},
		{
			"doubleSided":true,
			"emissiveFactor":[
				0.004777069669216871,
				0.20863322913646698,
				0
			],
			"name":"leave",
			"pbrMetallicRoughness":{
				"baseColorFactor":[
					0,
					0,
					0,
					1
				]
			}
		},
		{
			"doubleSided":true,
			"emissiveFactor":[
				0.08649884909391403,
				0.03954564034938812,
				0.014443810097873211
			],
			"name":"Tronc",
			"pbrMetallicRoughness":{
				"baseColorFactor":[
					0,
					0,
					0,
					1
				]
			}
		}
	],
	"meshes":[
		{
			"name":"range3.002",
			"primitives":[
				{
					"attributes":{
						"POSITION":0,
						"NORMAL":1,
						"TEXCOORD_0":2
					},
					"indices":3,
					"material":0
				}
			]
		},
		{
			"name":"Cone",
			"primitives":[
				{
					"attributes":{
						"POSITION":4,
						"NORMAL":5,
						"TEXCOORD_0":6
					},
					"indices":7,
					"material":1
				},
				{
					"attributes":{
						"POSITION":8,
						"NORMAL":9,
						"TEXCOORD_0":10
					},
					"indices":11,
					"material":2
				}
			]
		}
	],
	"textures":[
		{
			"sampler":0,
			"source":0
		}
	],
	"images":[
		{
			"mimeType":"image/png",
			"name":"Colormap.png",
			"uri":"textures/Colormap.png"
		}
	],
	"accessors":[
		{
			"bufferView":0,
			"componentType":5126,
			"count":3853,
			"max":[
				3,
				2.780137300491333,
				2.598076343536377
			],
			"min":[
				-3,
				-0.10000000149011612,
				-2.598076343536377
			],
			"type":"VEC3"
		},
		{
			"bufferView":1,
			"componentType":5126,
			"count":3853,
			"type":"VEC3"
		},
		{
			"bufferView":2,
			"componentType":5126,
			"count":3853,
			"type":"VEC2"
		},
		{
			"bufferView":3,
			"componentType":5123,
			"count":5583,
			"type":"SCALAR"
		},
		{
			"bufferView":4,
			"componentType":5126,
			"count":175,
			"max":[
				0.1029631495475769,
				0.5509732961654663,
				0.07389064878225327
			],
			"min":[
				-0.09963206946849823,
				0.12414367496967316,
				-0.10735081881284714
			],
			"type":"VEC3"
		},
		{
			"bufferView":5,
			"componentType":5126,
			"count":175,
			"type":"VEC3"
		},
		{
			"bufferView":6,
			"componentType":5126,
			"count":175,
			"type":"VEC2"
		},
		{
			"bufferView":7,
			"componentType":5123,
			"count":255,
			"type":"SCALAR"
		},
		{
			"bufferView":8,
			"componentType":5126,
			"count":45,
			"max":[
				0.05846463516354561,
				0.19944697618484497,
				0.038119230419397354
			],
			"min":[
				-0.055408742278814316,
				-0.03450898826122284,
				-0.06140797212719917
			],
			"type":"VEC3"
		},
		{
			"bufferView":9,
			"componentType":5126,
			"count":45,
			"type":"VEC3"
		},
		{
			"bufferView":10,
			"componentType":5126,
			"count":45,
			"type":"VEC2"
		},
		{
			"bufferView":11,
			"componentType":5123,
			"count":69,
			"type":"SCALAR"
		}
	],
	"bufferViews":[
		{
			"buffer":0,
			"byteLength":46236,
			"byteOffset":0,
			"target":34962
		},
		{
			"buffer":0,
			"byteLength":46236,
			"byteOffset":46236,
			"target":34962
		},
		{
			"buffer":0,
			"byteLength":30824,
			"byteOffset":92472,
			"target":34962
		},
		{
			"buffer":0,
			"byteLength":11166,
			"byteOffset":123296,
			"target":34963
		},
		{
			"buffer":0,
			"byteLength":2100,
			"byteOffset":134464,
			"target":34962
		},
		{
			"buffer":0,
			"byteLength":2100,
			"byteOffset":136564,
			"target":34962
		},
		{
			"buffer":0,
			"byteLength":1400,
			"byteOffset":138664,
			"target":34962
		},
		{
			"buffer":0,
			"byteLength":510,
			"byteOffset":140064,
			"target":34963
		},
		{
			"buffer":0,
			"byteLength":540,
			"byteOffset":140576,
			"target":34962
		},
		{
			"buffer":0,
			"byteLength":540,
			"byteOffset":141116,
			"target":34962
		},
		{
			"buffer":0,
			"byteLength":360,
			"byteOffset":141656,
			"target":34962
		},
		{
			"buffer":0,
			"byteLength":138,
			"byteOffset":142016,
			"target":34963
		}
	],
	"samplers":[
		{
			"magFilter":9729,
			"minFilter":9987
		}
	],
	"buffers":[
		{
			"byteLength":142156,
			"uri":"thibault.bin"
		}
	]
}
